<?xml version="1.0" encoding="UTF-8" standalone="no"?>
<!DOCTYPE svg PUBLIC "-//W3C//DTD SVG 1.1//EN"
 "http://www.w3.org/Graphics/SVG/1.1/DTD/svg11.dtd">
<!-- Generated by graphviz version 2.40.1 (20161225.0304)
 -->
<!-- Title: G Pages: 1 -->
<svg width="547pt" height="560pt"
 viewBox="0.00 0.00 546.79 560.00" xmlns="http://www.w3.org/2000/svg" xmlns:xlink="http://www.w3.org/1999/xlink">
<g id="graph0" class="graph" transform="scale(1 1) rotate(0) translate(4 556)">
<title>G</title>
<polygon fill="#ffffff" stroke="transparent" points="-4,4 -4,-556 542.7895,-556 542.7895,4 -4,4"/>
<!-- A0 -->
<g id="node1" class="node">
<title>A0</title>
<polygon fill="none" stroke="#000000" points="97.6866,-466 -.2296,-466 -.2296,-430 97.6866,-430 97.6866,-466"/>
<text text-anchor="middle" x="48.7285" y="-445" font-family="Helvetica,sans-Serif" font-size="10.00" fill="#000000">FrontendServer</text>
</g>
<!-- A1 -->
<g id="node2" class="node">
<title>A1</title>
<polygon fill="none" stroke="#000000" points="87.5139,-380 31.9431,-380 31.9431,-344 87.5139,-344 87.5139,-380"/>
<text text-anchor="middle" x="59.7285" y="-359" font-family="Helvetica,sans-Serif" font-size="10.00" fill="#000000">routes</text>
</g>
<!-- A0&#45;&gt;A1 -->
<g id="edge1" class="edge">
<title>A0&#45;&gt;A1</title>
<path fill="none" stroke="#000000" d="M51.0613,-429.7616C52.5197,-418.3597 54.4288,-403.4342 56.0839,-390.494"/>
<polygon fill="#000000" stroke="#000000" points="57.399,-380.2121 60.5939,-390.7023 56.7646,-385.1717 56.1302,-390.1313 56.1302,-390.1313 56.1302,-390.1313 56.7646,-385.1717 51.6666,-389.5603 57.399,-380.2121 57.399,-380.2121"/>
<text text-anchor="middle" x="63.4834" y="-396.2642" font-family="Helvetica,sans-Serif" font-size="10.00" fill="#000000">*</text>
</g>
<!-- A4 -->
<g id="node5" class="node">
<title>A4</title>
<polygon fill="none" stroke="#000000" points="113.7285,-294 59.7285,-294 59.7285,-258 113.7285,-258 113.7285,-294"/>
<text text-anchor="middle" x="86.7285" y="-273" font-family="Helvetica,sans-Serif" font-size="10.00" fill="#000000">app</text>
</g>
<!-- A1&#45;&gt;A4 -->
<g id="edge21" class="edge">
<title>A1&#45;&gt;A4</title>
<path fill="none" stroke="#000000" stroke-dasharray="5,2" d="M65.4545,-343.7616C69.07,-332.2456 73.8139,-317.1353 77.9044,-304.1064"/>
<polygon fill="#000000" stroke="#000000" points="81.0107,-294.2121 82.3087,-305.1009 79.513,-298.9825 78.0153,-303.7529 78.0153,-303.7529 78.0153,-303.7529 79.513,-298.9825 73.7219,-302.405 81.0107,-294.2121 81.0107,-294.2121"/>
<text text-anchor="middle" x="83.6455" y="-311.0378" font-family="Helvetica,sans-Serif" font-size="10.00" fill="#000000">1</text>
</g>
<!-- A2 -->
<g id="node3" class="node">
<title>A2</title>
<polygon fill="none" stroke="#000000" points="288.0791,-466 191.3779,-466 191.3779,-430 288.0791,-430 288.0791,-466"/>
<text text-anchor="middle" x="239.7285" y="-445" font-family="Helvetica,sans-Serif" font-size="10.00" fill="#000000">BackendServer</text>
</g>
<!-- A3 -->
<g id="node4" class="node">
<title>A3</title>
<polygon fill="none" stroke="#000000" points="327.7445,-380 219.7125,-380 219.7125,-344 327.7445,-344 327.7445,-380"/>
<text text-anchor="middle" x="273.7285" y="-359" font-family="Helvetica,sans-Serif" font-size="10.00" fill="#000000">ConnectionServer</text>
</g>
<!-- A2&#45;&gt;A3 -->
<g id="edge2" class="edge">
<title>A2&#45;&gt;A3</title>
<path fill="none" stroke="#000000" d="M251.468,-418.3061C255.1452,-409.0049 259.1866,-398.7823 262.8052,-389.6296"/>
<polygon fill="#000000" stroke="#000000" points="251.351,-418.6021 252.8649,-425.6525 246.939,-429.7616 245.4252,-422.7112 251.351,-418.6021"/>
<polygon fill="#000000" stroke="#000000" points="266.5284,-380.2121 267.0365,-391.1662 264.69,-384.8619 262.8517,-389.5117 262.8517,-389.5117 262.8517,-389.5117 264.69,-384.8619 258.6669,-387.8572 266.5284,-380.2121 266.5284,-380.2121"/>
<text text-anchor="middle" x="267.7245" y="-397.1763" font-family="Helvetica,sans-Serif" font-size="10.00" fill="#000000">1</text>
</g>
<!-- A14 -->
<g id="node15" class="node">
<title>A14</title>
<polygon fill="none" stroke="#000000" points="329.1797,-294 246.2773,-294 246.2773,-258 329.1797,-258 329.1797,-294"/>
<text text-anchor="middle" x="287.7285" y="-273" font-family="Helvetica,sans-Serif" font-size="10.00" fill="#000000">EntityServer</text>
</g>
<!-- A3&#45;&gt;A14 -->
<g id="edge14" class="edge">
<title>A3&#45;&gt;A14</title>
<path fill="none" stroke="#000000" d="M278.6262,-331.9138C280.0969,-322.8797 281.7041,-313.0073 283.153,-304.1064"/>
<polygon fill="#000000" stroke="#000000" points="278.6257,-331.9175 281.6097,-338.4823 276.6975,-343.7616 273.7136,-337.1968 278.6257,-331.9175"/>
<polygon fill="#000000" stroke="#000000" points="284.7637,-294.2121 287.5984,-304.8052 283.9603,-299.1471 283.1569,-304.0822 283.1569,-304.0822 283.1569,-304.0822 283.9603,-299.1471 278.7154,-303.3591 284.7637,-294.2121 284.7637,-294.2121"/>
<text text-anchor="middle" x="290.1939" y="-310.4608" font-family="Helvetica,sans-Serif" font-size="10.00" fill="#000000">1</text>
</g>
<!-- A5 -->
<g id="node6" class="node">
<title>A5</title>
<polygon fill="none" stroke="#000000" points="118.8446,-208 54.6124,-208 54.6124,-172 118.8446,-172 118.8446,-208"/>
<text text-anchor="middle" x="86.7285" y="-187" font-family="Helvetica,sans-Serif" font-size="10.00" fill="#000000">Express</text>
</g>
<!-- A4&#45;&gt;A5 -->
<g id="edge3" class="edge">
<title>A4&#45;&gt;A5</title>
<path fill="none" stroke="#000000" stroke-dasharray="5,2" d="M86.7285,-257.7616C86.7285,-246.3597 86.7285,-231.4342 86.7285,-218.494"/>
<polygon fill="none" stroke="#000000" points="90.2286,-218.2121 86.7285,-208.2121 83.2286,-218.2121 90.2286,-218.2121"/>
</g>
<!-- A6 -->
<g id="node7" class="node">
<title>A6</title>
<polygon fill="none" stroke="#000000" points="292.7285,-122 238.7285,-122 238.7285,-86 292.7285,-86 292.7285,-122"/>
<text text-anchor="middle" x="265.7285" y="-101" font-family="Helvetica,sans-Serif" font-size="10.00" fill="#000000">hs</text>
</g>
<!-- A7 -->
<g id="node8" class="node">
<title>A7</title>
<polygon fill="none" stroke="#000000" points="304.1286,-36 227.3284,-36 227.3284,0 304.1286,0 304.1286,-36"/>
<text text-anchor="middle" x="265.7285" y="-15" font-family="Helvetica,sans-Serif" font-size="10.00" fill="#000000">http.Server</text>
</g>
<!-- A6&#45;&gt;A7 -->
<g id="edge4" class="edge">
<title>A6&#45;&gt;A7</title>
<path fill="none" stroke="#000000" stroke-dasharray="5,2" d="M265.7285,-85.7616C265.7285,-74.3597 265.7285,-59.4342 265.7285,-46.494"/>
<polygon fill="none" stroke="#000000" points="269.2286,-46.2121 265.7285,-36.2121 262.2286,-46.2121 269.2286,-46.2121"/>
</g>
<!-- A8 -->
<g id="node9" class="node">
<title>A8</title>
<polygon fill="none" stroke="#000000" points="268.6752,-552 210.7818,-552 210.7818,-516 268.6752,-516 268.6752,-552"/>
<text text-anchor="middle" x="239.7285" y="-531" font-family="Helvetica,sans-Serif" font-size="10.00" fill="#000000">Server</text>
</g>
<!-- A8&#45;&gt;A0 -->
<g id="edge5" class="edge">
<title>A8&#45;&gt;A0</title>
<path fill="none" stroke="#000000" stroke-dasharray="5,2" d="M201.506,-516.7899C168.9094,-502.1129 122.1937,-481.0786 89.0177,-466.1407"/>
<polygon fill="none" stroke="#000000" points="200.1644,-520.0242 210.7197,-520.9385 203.0384,-513.6413 200.1644,-520.0242"/>
</g>
<!-- A8&#45;&gt;A2 -->
<g id="edge6" class="edge">
<title>A8&#45;&gt;A2</title>
<path fill="none" stroke="#000000" stroke-dasharray="5,2" d="M239.7285,-505.4762C239.7285,-492.5329 239.7285,-477.6086 239.7285,-466.2121"/>
<polygon fill="none" stroke="#000000" points="236.2286,-505.7616 239.7285,-515.7616 243.2286,-505.7616 236.2286,-505.7616"/>
</g>
<!-- A8&#45;&gt;A4 -->
<g id="edge10" class="edge">
<title>A8&#45;&gt;A4</title>
<path fill="none" stroke="#000000" d="M200.2655,-511.7791C182.6626,-500.1387 162.9568,-484.4529 149.7285,-466 113.6543,-415.6784 97.2779,-343.3724 90.6543,-304.056"/>
<polygon fill="#000000" stroke="#000000" points="200.7364,-512.077 207.9455,-511.9045 210.8774,-518.4927 203.6684,-518.6651 200.7364,-512.077"/>
<polygon fill="#000000" stroke="#000000" points="89.0708,-294.1163 95.0881,-303.2837 89.8575,-299.054 90.6442,-303.9917 90.6442,-303.9917 90.6442,-303.9917 89.8575,-299.054 86.2002,-304.6997 89.0708,-294.1163 89.0708,-294.1163"/>
<text text-anchor="middle" x="100.2697" y="-307.6869" font-family="Helvetica,sans-Serif" font-size="10.00" fill="#000000">1</text>
</g>
<!-- A8&#45;&gt;A6 -->
<g id="edge11" class="edge">
<title>A8&#45;&gt;A6</title>
<path fill="none" stroke="#000000" d="M211.7259,-507.2276C201.0734,-495.5407 189.8088,-481.0723 182.7285,-466 162.7504,-423.4714 163.7285,-408.9873 163.7285,-362 163.7285,-362 163.7285,-362 163.7285,-276 163.7285,-229.0127 158.8714,-212.4801 182.7285,-172 194.085,-152.7306 213.0473,-136.5779 229.9824,-124.8573"/>
<polygon fill="#000000" stroke="#000000" points="211.7695,-507.2734 218.8041,-508.859 220.0461,-515.9624 213.0115,-514.3768 211.7695,-507.2734"/>
<polygon fill="#000000" stroke="#000000" points="238.6026,-119.1391 232.7569,-128.4169 234.436,-121.903 230.2693,-124.667 230.2693,-124.667 230.2693,-124.667 234.436,-121.903 227.7818,-120.917 238.6026,-119.1391 238.6026,-119.1391"/>
<text text-anchor="middle" x="228.1699" y="-133.2025" font-family="Helvetica,sans-Serif" font-size="10.00" fill="#000000">1</text>
</g>
<!-- A9 -->
<g id="node10" class="node">
<title>A9</title>
<polygon fill="none" stroke="#000000" points="359.7285,-466 305.7285,-466 305.7285,-430 359.7285,-430 359.7285,-466"/>
<text text-anchor="middle" x="332.7285" y="-445" font-family="Helvetica,sans-Serif" font-size="10.00" fill="#000000">port</text>
</g>
<!-- A8&#45;&gt;A9 -->
<g id="edge7" class="edge">
<title>A8&#45;&gt;A9</title>
<path fill="none" stroke="#000000" d="M268.4913,-507.4021C280.3498,-496.4362 294.0186,-483.7963 305.691,-473.0024"/>
<polygon fill="#000000" stroke="#000000" points="268.2618,-507.6144 266.5724,-514.6248 259.4514,-515.7616 261.1409,-508.7512 268.2618,-507.6144"/>
<polygon fill="#000000" stroke="#000000" points="313.034,-466.2121 308.7472,-476.3054 309.363,-469.6068 305.692,-473.0015 305.692,-473.0015 305.692,-473.0015 309.363,-469.6068 302.6368,-469.6976 313.034,-466.2121 313.034,-466.2121"/>
<text text-anchor="middle" x="305.4644" y="-481.7243" font-family="Helvetica,sans-Serif" font-size="10.00" fill="#000000">1</text>
</g>
<!-- A10 -->
<g id="node11" class="node">
<title>A10</title>
<polygon fill="none" stroke="#000000" points="431.7285,-466 377.7285,-466 377.7285,-430 431.7285,-430 431.7285,-466"/>
<text text-anchor="middle" x="404.7285" y="-445" font-family="Helvetica,sans-Serif" font-size="10.00" fill="#000000">host</text>
</g>
<!-- A8&#45;&gt;A10 -->
<g id="edge8" class="edge">
<title>A8&#45;&gt;A10</title>
<path fill="none" stroke="#000000" d="M279.1441,-513.4561C306.3718,-499.2647 342.3025,-480.5372 368.7533,-466.7507"/>
<polygon fill="#000000" stroke="#000000" points="279.1106,-513.4735 275.6388,-519.7938 268.4693,-519.0199 271.9412,-512.6996 279.1106,-513.4735"/>
<polygon fill="#000000" stroke="#000000" points="377.6842,-462.0958 370.8963,-470.7084 373.2503,-464.4069 368.8164,-466.7179 368.8164,-466.7179 368.8164,-466.7179 373.2503,-464.4069 366.7365,-462.7274 377.6842,-462.0958 377.6842,-462.0958"/>
<text text-anchor="middle" x="365.517" y="-474.9691" font-family="Helvetica,sans-Serif" font-size="10.00" fill="#000000">1</text>
</g>
<!-- A11 -->
<g id="node12" class="node">
<title>A11</title>
<polygon fill="none" stroke="#000000" points="503.9045,-466 449.5525,-466 449.5525,-430 503.9045,-430 503.9045,-466"/>
<text text-anchor="middle" x="476.7285" y="-445" font-family="Helvetica,sans-Serif" font-size="10.00" fill="#000000">config</text>
</g>
<!-- A8&#45;&gt;A11 -->
<g id="edge9" class="edge">
<title>A8&#45;&gt;A11</title>
<path fill="none" stroke="#000000" stroke-dasharray="5,2" d="M268.4785,-525.6371C306.1377,-514.39 374.2397,-493.0465 440.1149,-466.0066"/>
<polygon fill="#000000" stroke="#000000" points="449.392,-462.1538 441.8827,-470.1451 444.7744,-464.0716 440.1568,-465.9893 440.1568,-465.9893 440.1568,-465.9893 444.7744,-464.0716 438.4308,-461.8334 449.392,-462.1538 449.392,-462.1538"/>
<text text-anchor="middle" x="435.8939" y="-473.9119" font-family="Helvetica,sans-Serif" font-size="10.00" fill="#000000">1</text>
</g>
<!-- A12 -->
<g id="node13" class="node">
<title>A12</title>
<polygon fill="none" stroke="#000000" points="521.427,-380 432.03,-380 432.03,-344 521.427,-344 521.427,-380"/>
<text text-anchor="middle" x="476.7285" y="-365" font-family="Helvetica,sans-Serif" font-size="10.00" fill="#000000">&lt;&lt;interface&gt;&gt;</text>
<text text-anchor="middle" x="476.7285" y="-353" font-family="Helvetica,sans-Serif" font-size="10.00" fill="#000000">StartOpts</text>
</g>
<!-- A11&#45;&gt;A12 -->
<g id="edge12" class="edge">
<title>A11&#45;&gt;A12</title>
<path fill="none" stroke="#000000" stroke-dasharray="5,2" d="M476.7285,-429.7616C476.7285,-418.3597 476.7285,-403.4342 476.7285,-390.494"/>
<polygon fill="none" stroke="#000000" points="480.2286,-390.2121 476.7285,-380.2121 473.2286,-390.2121 480.2286,-390.2121"/>
</g>
<!-- A13 -->
<g id="node14" class="node">
<title>A13</title>
<polygon fill="none" stroke="#000000" points="538.8506,-294 414.6064,-294 414.6064,-258 538.8506,-258 538.8506,-294"/>
<text text-anchor="middle" x="476.7285" y="-279" font-family="Helvetica,sans-Serif" font-size="10.00" fill="#000000">&lt;&lt;interface&gt;&gt;</text>
<text text-anchor="middle" x="476.7285" y="-267" font-family="Helvetica,sans-Serif" font-size="10.00" fill="#000000">EntityServerTemplate</text>
</g>
<!-- A12&#45;&gt;A13 -->
<g id="edge13" class="edge">
<title>A12&#45;&gt;A13</title>
<path fill="none" stroke="#000000" stroke-dasharray="5,2" d="M476.7285,-343.7616C476.7285,-332.3597 476.7285,-317.4342 476.7285,-304.494"/>
<polygon fill="none" stroke="#000000" points="480.2286,-304.2121 476.7285,-294.2121 473.2286,-304.2121 480.2286,-304.2121"/>
</g>
<!-- A15 -->
<g id="node16" class="node">
<title>A15</title>
<polygon fill="none" stroke="#000000" points="340.0723,-208 263.3847,-208 263.3847,-172 340.0723,-172 340.0723,-208"/>
<text text-anchor="middle" x="301.7285" y="-187" font-family="Helvetica,sans-Serif" font-size="10.00" fill="#000000">Messaging</text>
</g>
<!-- A14&#45;&gt;A15 -->
<g id="edge15" class="edge">
<title>A14&#45;&gt;A15</title>
<path fill="none" stroke="#000000" d="M292.6262,-245.9138C294.0969,-236.8797 295.7041,-227.0073 297.153,-218.1064"/>
<polygon fill="#000000" stroke="#000000" points="292.6257,-245.9175 295.6097,-252.4823 290.6975,-257.7616 287.7136,-251.1968 292.6257,-245.9175"/>
<polygon fill="#000000" stroke="#000000" points="298.7637,-208.2121 301.5984,-218.8052 297.9603,-213.1471 297.1569,-218.0822 297.1569,-218.0822 297.1569,-218.0822 297.9603,-213.1471 292.7154,-217.3591 298.7637,-208.2121 298.7637,-208.2121"/>
<text text-anchor="middle" x="304.1939" y="-224.4608" font-family="Helvetica,sans-Serif" font-size="10.00" fill="#000000">1</text>
</g>
<!-- A16 -->
<g id="node17" class="node">
<title>A16</title>
<polygon fill="none" stroke="#000000" points="245.7285,-208 191.7285,-208 191.7285,-172 245.7285,-172 245.7285,-208"/>
<text text-anchor="middle" x="218.7285" y="-187" font-family="Helvetica,sans-Serif" font-size="10.00" fill="#000000">State</text>
</g>
<!-- A14&#45;&gt;A16 -->
<g id="edge16" class="edge">
<title>A14&#45;&gt;A16</title>
<path fill="none" stroke="#000000" d="M265.4642,-248.2503C257.241,-238.0011 247.9523,-226.4239 239.8348,-216.3063"/>
<polygon fill="#000000" stroke="#000000" points="265.5857,-248.4018 272.4605,-250.5785 273.0954,-257.7616 266.2206,-255.5849 265.5857,-248.4018"/>
<polygon fill="#000000" stroke="#000000" points="233.3405,-208.2121 243.1085,-213.1958 236.4696,-212.112 239.5986,-216.012 239.5986,-216.012 239.5986,-216.012 236.4696,-212.112 236.0886,-218.8281 233.3405,-208.2121 233.3405,-208.2121"/>
<text text-anchor="middle" x="251.2766" y="-214.0607" font-family="Helvetica,sans-Serif" font-size="10.00" fill="#000000">1</text>
</g>
<!-- A17 -->
<g id="node18" class="node">
<title>A17</title>
<polygon fill="none" stroke="#000000" points="411.7285,-208 357.7285,-208 357.7285,-172 411.7285,-172 411.7285,-208"/>
<text text-anchor="middle" x="384.7285" y="-187" font-family="Helvetica,sans-Serif" font-size="10.00" fill="#000000">Cave</text>
</g>
<!-- A14&#45;&gt;A17 -->
<g id="edge17" class="edge">
<title>A14&#45;&gt;A17</title>
<path fill="none" stroke="#000000" d="M317.2984,-249.7834C329.7399,-238.7528 344.1527,-225.9744 356.4518,-215.07"/>
<polygon fill="#000000" stroke="#000000" points="317.2788,-249.8007 315.4429,-256.7742 308.2997,-257.7616 310.1356,-250.7881 317.2788,-249.8007"/>
<polygon fill="#000000" stroke="#000000" points="364.1869,-208.2121 359.6897,-218.2134 360.4456,-211.5291 356.7043,-214.8462 356.7043,-214.8462 356.7043,-214.8462 360.4456,-211.5291 353.719,-211.479 364.1869,-208.2121 364.1869,-208.2121"/>
<text text-anchor="middle" x="356.2312" y="-223.5617" font-family="Helvetica,sans-Serif" font-size="10.00" fill="#000000">1</text>
</g>
<!-- A15&#45;&gt;A6 -->
<g id="edge20" class="edge">
<title>A15&#45;&gt;A6</title>
<path fill="none" stroke="#000000" stroke-dasharray="5,2" d="M294.0938,-171.7616C289.2255,-160.1316 282.8225,-144.8357 277.3322,-131.72"/>
<polygon fill="#000000" stroke="#000000" points="273.3522,-122.2121 281.3646,-129.6989 275.2829,-126.8243 277.2136,-131.4365 277.2136,-131.4365 277.2136,-131.4365 275.2829,-126.8243 273.0626,-133.1742 273.3522,-122.2121 273.3522,-122.2121"/>
<text text-anchor="middle" x="288.1482" y="-132.6686" font-family="Helvetica,sans-Serif" font-size="10.00" fill="#000000">1</text>
</g>
<!-- A18 -->
<g id="node19" class="node">
<title>A18</title>
<polygon fill="none" stroke="#000000" points="465.427,-122 376.03,-122 376.03,-86 465.427,-86 465.427,-122"/>
<text text-anchor="middle" x="420.7285" y="-107" font-family="Helvetica,sans-Serif" font-size="10.00" fill="#000000">&lt;&lt;interface&gt;&gt;</text>
<text text-anchor="middle" x="420.7285" y="-95" font-family="Helvetica,sans-Serif" font-size="10.00" fill="#000000">Map</text>
</g>
<!-- A17&#45;&gt;A18 -->
<g id="edge18" class="edge">
<title>A17&#45;&gt;A18</title>
<path fill="none" stroke="#000000" d="M397.1585,-160.3061C401.052,-151.0049 405.3312,-140.7823 409.1626,-131.6296"/>
<polygon fill="#000000" stroke="#000000" points="396.9969,-160.6923 398.3698,-167.7715 392.3632,-171.7616 390.9903,-164.6824 396.9969,-160.6923"/>
<polygon fill="#000000" stroke="#000000" points="413.1048,-122.2121 413.3944,-133.1742 411.1741,-126.8243 409.2434,-131.4365 409.2434,-131.4365 409.2434,-131.4365 411.1741,-126.8243 405.0924,-129.6989 413.1048,-122.2121 413.1048,-122.2121"/>
<text text-anchor="middle" x="413.9024" y="-139.1962" font-family="Helvetica,sans-Serif" font-size="10.00" fill="#000000">1</text>
</g>
<!-- A19 -->
<g id="node20" class="node">
<title>A19</title>
<polygon fill="none" stroke="#000000" points="507.7897,-208 429.6673,-208 429.6673,-172 507.7897,-172 507.7897,-208"/>
<text text-anchor="middle" x="468.7285" y="-187" font-family="Helvetica,sans-Serif" font-size="10.00" fill="#000000">MapBuilder</text>
</g>
<!-- A19&#45;&gt;A18 -->
<g id="edge19" class="edge">
<title>A19&#45;&gt;A18</title>
<path fill="none" stroke="#000000" stroke-dasharray="5,2" d="M458.5489,-171.7616C451.9305,-159.9036 443.185,-144.2345 435.7709,-130.951"/>
<polygon fill="none" stroke="#000000" points="438.8233,-129.2383 430.8934,-122.2121 432.7109,-132.6499 438.8233,-129.2383"/>
</g>
</g>
</svg>
