<?xml version="1.0" encoding="UTF-8" standalone="no"?>
<!DOCTYPE svg PUBLIC "-//W3C//DTD SVG 1.1//EN"
 "http://www.w3.org/Graphics/SVG/1.1/DTD/svg11.dtd">
<!-- Generated by graphviz version 2.40.1 (20161225.0304)
 -->
<!-- Title: G Pages: 1 -->
<svg width="523pt" height="560pt"
 viewBox="0.00 0.00 522.84 560.00" xmlns="http://www.w3.org/2000/svg" xmlns:xlink="http://www.w3.org/1999/xlink">
<g id="graph0" class="graph" transform="scale(1 1) rotate(0) translate(4 556)">
<title>G</title>
<polygon fill="#ffffff" stroke="transparent" points="-4,4 -4,-556 518.8435,-556 518.8435,4 -4,4"/>
<!-- A0 -->
<g id="node1" class="node">
<title>A0</title>
<polygon fill="none" stroke="#000000" points="128.9526,-466 31.0364,-466 31.0364,-430 128.9526,-430 128.9526,-466"/>
<text text-anchor="middle" x="79.9945" y="-445" font-family="Helvetica,sans-Serif" font-size="10.00" fill="#000000">FrontendServer</text>
</g>
<!-- A1 -->
<g id="node2" class="node">
<title>A1</title>
<polygon fill="none" stroke="#000000" points="117.7799,-380 62.2091,-380 62.2091,-344 117.7799,-344 117.7799,-380"/>
<text text-anchor="middle" x="89.9945" y="-359" font-family="Helvetica,sans-Serif" font-size="10.00" fill="#000000">routes</text>
</g>
<!-- A0&#45;&gt;A1 -->
<g id="edge1" class="edge">
<title>A0&#45;&gt;A1</title>
<path fill="none" stroke="#000000" d="M82.1152,-429.7616C83.441,-418.3597 85.1766,-403.4342 86.6812,-390.494"/>
<polygon fill="#000000" stroke="#000000" points="87.8768,-380.2121 91.1916,-390.665 87.2992,-385.1786 86.7217,-390.1452 86.7217,-390.1452 86.7217,-390.1452 87.2992,-385.1786 82.2518,-389.6254 87.8768,-380.2121 87.8768,-380.2121"/>
<text text-anchor="middle" x="94.179" y="-396.1932" font-family="Helvetica,sans-Serif" font-size="10.00" fill="#000000">*</text>
</g>
<!-- A4 -->
<g id="node5" class="node">
<title>A4</title>
<polygon fill="none" stroke="#000000" points="129.9945,-294 75.9945,-294 75.9945,-258 129.9945,-258 129.9945,-294"/>
<text text-anchor="middle" x="102.9945" y="-273" font-family="Helvetica,sans-Serif" font-size="10.00" fill="#000000">app</text>
</g>
<!-- A1&#45;&gt;A4 -->
<g id="edge16" class="edge">
<title>A1&#45;&gt;A4</title>
<path fill="none" stroke="#000000" stroke-dasharray="5,2" d="M92.7514,-343.7616C94.4922,-332.2456 96.7764,-317.1353 98.7458,-304.1064"/>
<polygon fill="#000000" stroke="#000000" points="100.2415,-294.2121 103.1962,-304.7724 99.4941,-299.1559 98.7468,-304.0998 98.7468,-304.0998 98.7468,-304.0998 99.4941,-299.1559 94.2973,-303.4271 100.2415,-294.2121 100.2415,-294.2121"/>
<text text-anchor="middle" x="105.8897" y="-310.398" font-family="Helvetica,sans-Serif" font-size="10.00" fill="#000000">1</text>
</g>
<!-- A2 -->
<g id="node3" class="node">
<title>A2</title>
<polygon fill="none" stroke="#000000" points="281.3451,-466 184.6438,-466 184.6438,-430 281.3451,-430 281.3451,-466"/>
<text text-anchor="middle" x="232.9945" y="-445" font-family="Helvetica,sans-Serif" font-size="10.00" fill="#000000">BackendServer</text>
</g>
<!-- A3 -->
<g id="node4" class="node">
<title>A3</title>
<polygon fill="none" stroke="#000000" points="293.0105,-380 184.9785,-380 184.9785,-344 293.0105,-344 293.0105,-380"/>
<text text-anchor="middle" x="238.9945" y="-359" font-family="Helvetica,sans-Serif" font-size="10.00" fill="#000000">ConnectionServer</text>
</g>
<!-- A2&#45;&gt;A3 -->
<g id="edge2" class="edge">
<title>A2&#45;&gt;A3</title>
<path fill="none" stroke="#000000" d="M235.121,-417.5205C235.7395,-408.6543 236.4124,-399.01 237.0211,-390.2849"/>
<polygon fill="#000000" stroke="#000000" points="235.1022,-417.7907 238.6749,-424.0546 234.2669,-429.7616 230.6943,-423.4977 235.1022,-417.7907"/>
<polygon fill="#000000" stroke="#000000" points="237.7239,-380.2121 241.5169,-390.5011 237.3758,-385.2 237.0278,-390.1878 237.0278,-390.1878 237.0278,-390.1878 237.3758,-385.2 232.5387,-389.8746 237.7239,-380.2121 237.7239,-380.2121"/>
<text text-anchor="middle" x="244.8942" y="-395.8826" font-family="Helvetica,sans-Serif" font-size="10.00" fill="#000000">1</text>
</g>
<!-- A13 -->
<g id="node14" class="node">
<title>A13</title>
<polygon fill="none" stroke="#000000" points="273.4457,-294 190.5432,-294 190.5432,-258 273.4457,-258 273.4457,-294"/>
<text text-anchor="middle" x="231.9945" y="-273" font-family="Helvetica,sans-Serif" font-size="10.00" fill="#000000">EntityServer</text>
</g>
<!-- A3&#45;&gt;A13 -->
<g id="edge13" class="edge">
<title>A3&#45;&gt;A13</title>
<path fill="none" stroke="#000000" d="M236.5136,-331.5205C235.7919,-322.6543 235.0069,-313.01 234.2967,-304.2849"/>
<polygon fill="#000000" stroke="#000000" points="236.5363,-331.8012 241.01,-337.4569 237.51,-343.7616 233.0363,-338.1059 236.5363,-331.8012"/>
<polygon fill="#000000" stroke="#000000" points="233.4769,-294.2121 238.7734,-303.814 233.8825,-299.1956 234.2882,-304.1791 234.2882,-304.1791 234.2882,-304.1791 233.8825,-299.1956 229.8031,-304.5442 233.4769,-294.2121 233.4769,-294.2121"/>
<text text-anchor="middle" x="243.3719" y="-308.5928" font-family="Helvetica,sans-Serif" font-size="10.00" fill="#000000">1</text>
</g>
<!-- A5 -->
<g id="node6" class="node">
<title>A5</title>
<polygon fill="none" stroke="#000000" points="135.1106,-208 70.8784,-208 70.8784,-172 135.1106,-172 135.1106,-208"/>
<text text-anchor="middle" x="102.9945" y="-187" font-family="Helvetica,sans-Serif" font-size="10.00" fill="#000000">Express</text>
</g>
<!-- A4&#45;&gt;A5 -->
<g id="edge3" class="edge">
<title>A4&#45;&gt;A5</title>
<path fill="none" stroke="#000000" stroke-dasharray="5,2" d="M102.9945,-257.7616C102.9945,-246.3597 102.9945,-231.4342 102.9945,-218.494"/>
<polygon fill="none" stroke="#000000" points="106.4946,-218.2121 102.9945,-208.2121 99.4946,-218.2121 106.4946,-218.2121"/>
</g>
<!-- A6 -->
<g id="node7" class="node">
<title>A6</title>
<polygon fill="none" stroke="#000000" points="111.9945,-122 57.9945,-122 57.9945,-86 111.9945,-86 111.9945,-122"/>
<text text-anchor="middle" x="84.9945" y="-101" font-family="Helvetica,sans-Serif" font-size="10.00" fill="#000000">hs</text>
</g>
<!-- A7 -->
<g id="node8" class="node">
<title>A7</title>
<polygon fill="none" stroke="#000000" points="123.3945,-36 46.5944,-36 46.5944,0 123.3945,0 123.3945,-36"/>
<text text-anchor="middle" x="84.9945" y="-15" font-family="Helvetica,sans-Serif" font-size="10.00" fill="#000000">http.Server</text>
</g>
<!-- A6&#45;&gt;A7 -->
<g id="edge4" class="edge">
<title>A6&#45;&gt;A7</title>
<path fill="none" stroke="#000000" stroke-dasharray="5,2" d="M84.9945,-85.7616C84.9945,-74.3597 84.9945,-59.4342 84.9945,-46.494"/>
<polygon fill="none" stroke="#000000" points="88.4946,-46.2121 84.9945,-36.2121 81.4946,-46.2121 88.4946,-46.2121"/>
</g>
<!-- A8 -->
<g id="node9" class="node">
<title>A8</title>
<polygon fill="none" stroke="#000000" points="261.9412,-552 204.0477,-552 204.0477,-516 261.9412,-516 261.9412,-552"/>
<text text-anchor="middle" x="232.9945" y="-531" font-family="Helvetica,sans-Serif" font-size="10.00" fill="#000000">Server</text>
</g>
<!-- A8&#45;&gt;A0 -->
<g id="edge5" class="edge">
<title>A8&#45;&gt;A0</title>
<path fill="none" stroke="#000000" stroke-dasharray="5,2" d="M195.1942,-512.7528C169.6615,-498.4011 136.3209,-479.6606 112.0814,-466.0358"/>
<polygon fill="none" stroke="#000000" points="193.7841,-515.9752 204.2164,-517.8241 197.214,-509.8731 193.7841,-515.9752"/>
</g>
<!-- A8&#45;&gt;A2 -->
<g id="edge6" class="edge">
<title>A8&#45;&gt;A2</title>
<path fill="none" stroke="#000000" stroke-dasharray="5,2" d="M232.9945,-505.4762C232.9945,-492.5329 232.9945,-477.6086 232.9945,-466.2121"/>
<polygon fill="none" stroke="#000000" points="229.4946,-505.7616 232.9945,-515.7616 236.4946,-505.7616 229.4946,-505.7616"/>
</g>
<!-- A8&#45;&gt;A4 -->
<g id="edge10" class="edge">
<title>A8&#45;&gt;A4</title>
<path fill="none" stroke="#000000" stroke-dasharray="5,2" d="M214.968,-515.9337C202.7308,-502.9124 186.8601,-484.4505 175.9945,-466 167.4357,-451.4666 131.041,-352.9347 113.0898,-303.7766"/>
<polygon fill="#000000" stroke="#000000" points="109.5557,-294.0842 117.2091,-301.9376 111.2686,-298.7817 112.9814,-303.4792 112.9814,-303.4792 112.9814,-303.4792 111.2686,-298.7817 108.7536,-305.0207 109.5557,-294.0842 109.5557,-294.0842"/>
<text text-anchor="middle" x="123.706" y="-305.2183" font-family="Helvetica,sans-Serif" font-size="10.00" fill="#000000">1</text>
</g>
<!-- A8&#45;&gt;A6 -->
<g id="edge11" class="edge">
<title>A8&#45;&gt;A6</title>
<path fill="none" stroke="#000000" stroke-dasharray="5,2" d="M204.1878,-528.502C152.3073,-518.0135 46.2901,-493.7085 21.9945,-466 -8.9834,-430.6705 2.9945,-408.9873 2.9945,-362 2.9945,-362 2.9945,-362 2.9945,-276 2.9945,-219.8204 39.08,-162.4856 63.3745,-130.251"/>
<polygon fill="#000000" stroke="#000000" points="69.5709,-122.2295 67.0189,-132.8943 66.5143,-126.1864 63.4577,-130.1434 63.4577,-130.1434 63.4577,-130.1434 66.5143,-126.1864 59.8965,-127.3924 69.5709,-122.2295 69.5709,-122.2295"/>
<text text-anchor="middle" x="65.1792" y="-138.7413" font-family="Helvetica,sans-Serif" font-size="10.00" fill="#000000">1</text>
</g>
<!-- A9 -->
<g id="node10" class="node">
<title>A9</title>
<polygon fill="none" stroke="#000000" points="352.9945,-466 298.9945,-466 298.9945,-430 352.9945,-430 352.9945,-466"/>
<text text-anchor="middle" x="325.9945" y="-445" font-family="Helvetica,sans-Serif" font-size="10.00" fill="#000000">port</text>
</g>
<!-- A8&#45;&gt;A9 -->
<g id="edge7" class="edge">
<title>A8&#45;&gt;A9</title>
<path fill="none" stroke="#000000" d="M261.7573,-507.4021C273.6158,-496.4362 287.2846,-483.7963 298.957,-473.0024"/>
<polygon fill="#000000" stroke="#000000" points="261.5278,-507.6144 259.8383,-514.6248 252.7174,-515.7616 254.4068,-508.7512 261.5278,-507.6144"/>
<polygon fill="#000000" stroke="#000000" points="306.3,-466.2121 302.0132,-476.3054 302.629,-469.6068 298.958,-473.0015 298.958,-473.0015 298.958,-473.0015 302.629,-469.6068 295.9028,-469.6976 306.3,-466.2121 306.3,-466.2121"/>
<text text-anchor="middle" x="298.7304" y="-481.7243" font-family="Helvetica,sans-Serif" font-size="10.00" fill="#000000">1</text>
</g>
<!-- A10 -->
<g id="node11" class="node">
<title>A10</title>
<polygon fill="none" stroke="#000000" points="424.9945,-466 370.9945,-466 370.9945,-430 424.9945,-430 424.9945,-466"/>
<text text-anchor="middle" x="397.9945" y="-445" font-family="Helvetica,sans-Serif" font-size="10.00" fill="#000000">host</text>
</g>
<!-- A8&#45;&gt;A10 -->
<g id="edge8" class="edge">
<title>A8&#45;&gt;A10</title>
<path fill="none" stroke="#000000" d="M272.4101,-513.4561C299.6378,-499.2647 335.5684,-480.5372 362.0193,-466.7507"/>
<polygon fill="#000000" stroke="#000000" points="272.3766,-513.4735 268.9048,-519.7938 261.7353,-519.0199 265.2071,-512.6996 272.3766,-513.4735"/>
<polygon fill="#000000" stroke="#000000" points="370.9501,-462.0958 364.1623,-470.7084 366.5163,-464.4069 362.0824,-466.7179 362.0824,-466.7179 362.0824,-466.7179 366.5163,-464.4069 360.0025,-462.7274 370.9501,-462.0958 370.9501,-462.0958"/>
<text text-anchor="middle" x="358.783" y="-474.9691" font-family="Helvetica,sans-Serif" font-size="10.00" fill="#000000">1</text>
</g>
<!-- A11 -->
<g id="node12" class="node">
<title>A11</title>
<polygon fill="none" stroke="#000000" points="497.1704,-466 442.8185,-466 442.8185,-430 497.1704,-430 497.1704,-466"/>
<text text-anchor="middle" x="469.9945" y="-445" font-family="Helvetica,sans-Serif" font-size="10.00" fill="#000000">config</text>
</g>
<!-- A8&#45;&gt;A11 -->
<g id="edge9" class="edge">
<title>A8&#45;&gt;A11</title>
<path fill="none" stroke="#000000" stroke-dasharray="5,2" d="M261.7445,-525.6371C299.4037,-514.39 367.5056,-493.0465 433.3809,-466.0066"/>
<polygon fill="#000000" stroke="#000000" points="442.658,-462.1538 435.1487,-470.1451 438.0404,-464.0716 433.4227,-465.9893 433.4227,-465.9893 433.4227,-465.9893 438.0404,-464.0716 431.6968,-461.8334 442.658,-462.1538 442.658,-462.1538"/>
</g>
<!-- A12 -->
<g id="node13" class="node">
<title>A12</title>
<polygon fill="none" stroke="#000000" points="514.693,-380 425.296,-380 425.296,-344 514.693,-344 514.693,-380"/>
<text text-anchor="middle" x="469.9945" y="-365" font-family="Helvetica,sans-Serif" font-size="10.00" fill="#000000">&lt;&lt;interface&gt;&gt;</text>
<text text-anchor="middle" x="469.9945" y="-353" font-family="Helvetica,sans-Serif" font-size="10.00" fill="#000000">StartOpts</text>
</g>
<!-- A11&#45;&gt;A12 -->
<g id="edge12" class="edge">
<title>A11&#45;&gt;A12</title>
<path fill="none" stroke="#000000" stroke-dasharray="5,2" d="M469.9945,-429.7616C469.9945,-418.3597 469.9945,-403.4342 469.9945,-390.494"/>
<polygon fill="none" stroke="#000000" points="473.4946,-390.2121 469.9945,-380.2121 466.4946,-390.2121 473.4946,-390.2121"/>
</g>
<!-- A14 -->
<g id="node15" class="node">
<title>A14</title>
<polygon fill="none" stroke="#000000" points="264.3383,-208 187.6507,-208 187.6507,-172 264.3383,-172 264.3383,-208"/>
<text text-anchor="middle" x="225.9945" y="-187" font-family="Helvetica,sans-Serif" font-size="10.00" fill="#000000">Messaging</text>
</g>
<!-- A13&#45;&gt;A14 -->
<g id="edge14" class="edge">
<title>A13&#45;&gt;A14</title>
<path fill="none" stroke="#000000" d="M229.868,-245.5205C229.2494,-236.6543 228.5766,-227.01 227.9678,-218.2849"/>
<polygon fill="#000000" stroke="#000000" points="229.8868,-245.7907 234.2947,-251.4977 230.722,-257.7616 226.3141,-252.0546 229.8868,-245.7907"/>
<polygon fill="#000000" stroke="#000000" points="227.2651,-208.2121 232.4503,-217.8746 227.6131,-213.2 227.9612,-218.1878 227.9612,-218.1878 227.9612,-218.1878 227.6131,-213.2 223.4721,-218.5011 227.2651,-208.2121 227.2651,-208.2121"/>
<text text-anchor="middle" x="236.9585" y="-222.706" font-family="Helvetica,sans-Serif" font-size="10.00" fill="#000000">1</text>
</g>
<!-- A14&#45;&gt;A6 -->
<g id="edge15" class="edge">
<title>A14&#45;&gt;A6</title>
<path fill="none" stroke="#000000" stroke-dasharray="5,2" d="M196.4363,-171.9716C174.3818,-158.5199 144.1468,-140.0787 120.7339,-125.7985"/>
<polygon fill="#000000" stroke="#000000" points="112.1259,-120.5483 123.0065,-121.9137 116.3946,-123.1519 120.6632,-125.7555 120.6632,-125.7555 120.6632,-125.7555 116.3946,-123.1519 118.32,-129.5972 112.1259,-120.5483 112.1259,-120.5483"/>
<text text-anchor="middle" x="132.002" y="-119.7708" font-family="Helvetica,sans-Serif" font-size="10.00" fill="#000000">1</text>
</g>
</g>
</svg>
